<svg width="500" height="500" viewBox="0 0 500 500" fill="none" xmlns="http://www.w3.org/2000/svg">
<rect width="500" height="500" fill="white"/>
<path d="M113.35 73.8185C122.38 72.4095 132.61 73.2445 141.79 73.2565L194.8 73.3335L385.51 73.3015C385.58 73.4235 385.65 73.5425 385.72 73.6675C385.82 73.8745 385.91 74.0885 386.02 74.2965C386.4 75.0805 386.79 75.8725 386.97 76.7345C388.13 82.3065 388.3 124.301 386.92 129.234C386.7 130.031 385.49 131.408 385 132.157C355.02 133.349 324.53 132.219 294.5 132.22L113 132.221C113.31 131.733 113.4 131.655 113.61 131.162C115.6 126.561 115.38 78.4185 113.35 73.8185Z" fill="#A2BD30"/>
<path d="M229.71 192.818C241.58 190.251 257.11 192.057 269.37 192.108C270.01 192.592 270.63 193.126 271.12 193.772C276.41 200.838 296.44 252.36 301.32 263.861C329.14 329.367 357.86 394.641 384.72 460.541C385.67 462.881 386.6 464.753 386.22 467.339H323.45C323.57 466.972 323.59 466.951 323.67 466.521C323.89 465.329 323.47 464.367 323.07 463.265C318.03 449.527 311.79 436.057 306.1 422.568C293.31 392.2 280.18 361.929 267.85 331.366C262.96 319.225 261.87 298.837 254.51 288.825C254.61 288.548 254.76 288.225 254.81 287.923C255.65 283.119 251.98 275.678 249.3 271.819C249.64 272.614 249.88 273.41 249.94 274.273C250.37 280.608 236.98 323.553 234.09 331.565C228.29 347.637 181.94 461.075 176.15 467.339H113C113.8 466.665 114.54 465.943 115.16 465.089C120.66 457.448 140.8 405.617 145.94 393.511C173.43 328.762 201.78 264.239 228.36 199.119C229.26 196.916 230.05 195.262 229.71 192.818Z" fill="black"/>
</svg>
