<?xml version="1.0" encoding="utf-8" ?>
<svg xmlns="http://www.w3.org/2000/svg" xmlns:xlink="http://www.w3.org/1999/xlink" width="2048" height="745">
	<path fill="#A2BD30" d="M1043.38 167.498C1052.41 166.089 1062.64 166.924 1071.82 166.936L1124.83 167.013L1315.54 166.981C1315.61 167.103 1315.68 167.222 1315.75 167.347C1315.85 167.554 1315.94 167.768 1316.05 167.976C1316.43 168.76 1316.82 169.552 1317 170.414C1318.16 175.986 1318.33 217.981 1316.95 222.914C1316.73 223.711 1315.52 225.088 1315.03 225.837C1285.05 227.029 1254.56 225.899 1224.53 225.9L1043.03 225.901C1043.34 225.413 1043.43 225.335 1043.64 224.842C1045.63 220.241 1045.41 172.098 1043.38 167.498Z"/>
	<path fill="white" d="M549.373 302.801L608.545 302.788L608.545 578.019L549.373 578.019L549.373 302.801Z"/>
	<path fill="white" d="M1423.84 303.499C1435.38 300.799 1468.67 302.738 1482.5 302.788C1483.11 303.756 1483.61 304.75 1483.91 305.857C1485.96 313.358 1484.39 352.176 1484.39 363.937C1484.42 414.711 1485.89 465.999 1484.29 516.716C1484.21 519.07 1483.98 520.814 1482.79 522.883L1590.5 522.883C1591.22 524.032 1591.76 525.193 1592.04 526.53C1593.41 533.034 1593.35 573.051 1590.57 577.501C1584.77 579.677 1442.72 578.033 1424 578.019C1424.25 577.664 1424.49 577.294 1424.65 576.886C1426.22 572.955 1426.04 334.286 1425.19 309.287C1425.11 307.122 1424.75 305.468 1423.84 303.499Z"/>
	<path fill="white" d="M1683.36 303.499C1696.74 300.698 1727.46 302.804 1742.96 302.826L1880.22 302.788C1880.65 303.395 1880.94 303.996 1881.16 304.71C1882.91 310.4 1882.37 353.957 1880.11 357.928L1811.06 357.928C1811.75 359.046 1812.33 360.243 1812.57 361.549C1814.52 371.923 1812.88 397.822 1812.89 409.646C1812.91 439.738 1814.55 473.878 1812.71 503.543C1812.59 505.443 1812.1 506.895 1811.09 508.5C1811.72 509.423 1812.23 510.41 1812.47 511.508C1813.95 518.136 1813.95 573.434 1811.33 578.019L1751.99 578.019C1752.57 577.095 1753.04 576.146 1753.33 575.091C1755.38 567.544 1753.78 528.76 1753.79 516.98C1753.81 466.026 1755.38 414.49 1753.69 363.605C1753.62 361.395 1753.3 359.872 1752.22 357.928L1683.22 357.928C1683.77 357.04 1684.23 356.131 1684.51 355.116C1686.18 349.156 1685.85 307.939 1683.36 303.499Z"/>
	<path fill="white" d="M1159.48 303.498C1171.35 300.931 1186.88 302.737 1199.14 302.788C1199.78 303.272 1200.4 303.806 1200.89 304.452C1206.18 311.518 1226.21 363.04 1231.09 374.541C1258.91 440.047 1287.63 505.321 1314.49 571.221C1315.44 573.561 1316.37 575.433 1315.99 578.019L1253.22 578.019C1253.34 577.652 1253.36 577.631 1253.44 577.201C1253.66 576.009 1253.24 575.047 1252.84 573.945C1247.8 560.207 1241.56 546.737 1235.87 533.248C1223.08 502.88 1209.95 472.609 1197.62 442.046C1192.73 429.905 1191.64 409.517 1184.28 399.505C1184.38 399.228 1184.53 398.905 1184.58 398.603C1185.42 393.799 1181.75 386.358 1179.07 382.499C1179.41 383.294 1179.65 384.09 1179.71 384.953C1180.14 391.288 1166.75 434.233 1163.86 442.245C1158.06 458.317 1111.71 571.755 1105.92 578.019L1042.77 578.019C1043.57 577.345 1044.31 576.623 1044.93 575.769C1050.43 568.128 1070.57 516.297 1075.71 504.191C1103.2 439.442 1131.55 374.919 1158.13 309.799C1159.03 307.596 1159.82 305.942 1159.48 303.498Z"/>
	<path fill="white" d="M166.712 302.788L229.414 302.788C241.351 330.13 252.591 357.831 264.149 385.339C271.966 403.944 280.71 422.609 287.256 441.693C293.538 460.008 298.009 479.357 303.103 498.057C308.484 478.568 313.172 458.455 319.865 439.377C325.622 422.969 333.156 406.88 339.89 390.841L376.922 302.788L439.654 302.788L415.734 359.248L323.016 578.019L283.385 578.019L166.712 302.788Z"/>
	<path fill="white" d="M745 302.788C778.269 302.734 856.227 299.285 883.912 307.636C904.241 313.768 921.598 326.015 931.665 345.017C941.163 362.946 943.382 386.212 937.364 405.611C933.083 419.41 923.86 431.586 910.946 438.314C918.351 440.569 926.06 446.415 931.357 451.933C944.109 465.219 948.862 482.868 948.425 500.939C948.141 512.702 945.426 530.966 936.447 539.498C936.448 539.607 936.456 539.715 936.451 539.824C936.295 543.86 929.577 550.162 926.876 552.868C915.533 564.233 900.537 571.361 885.007 574.957C864.352 579.741 841.899 578.105 820.793 578.091L745 578.019C746.7 573.146 747.404 313.093 745 302.788ZM803.82 468.49C805.994 474.362 806.073 517.249 803.99 521.625C803.781 522.065 803.53 522.475 803.265 522.883C817.91 522.934 871.733 526.225 880.395 517.241C880.868 516.75 881.117 516.396 881.323 515.748C885.261 513.319 887.105 509.831 888.176 505.385C890.072 497.51 890.243 486.566 885.747 479.516C881.863 473.425 875.473 470.181 868.578 468.803C857.575 466.604 815.799 466.916 803.82 468.49ZM803.432 358.485C805.657 362.946 806.396 404.645 804.439 410.48C804.142 411.367 803.716 412.167 803.227 412.959C818.234 413.018 862.948 416.431 872.796 407.087L873.281 405.86C877.542 403.389 879.248 399.667 880.456 395.051C882.652 386.668 881.837 376.404 877.375 368.864C874.121 363.365 869.533 360.725 863.478 359.256C852.892 356.688 814.233 356.878 803.432 358.485Z"/>
</svg>
